<?xml version="1.0" encoding="UTF-8"?>
<svg width="167.68" height="167.68" viewBox="0 0 167.68108 202.12608" xmlns="http://www.w3.org/2000/svg">
 <g transform="translate(-283.34 -77.544)" stroke="#000">
  <path transform="matrix(1.1487 0 0 1.2102 350.02 113.29)" d="m-39.506 77.552c11.571-31.11 47.723-45.869 78.299-34.281 14.094 5.341 25.983 15.725 33.35 28.856" fill="none"/>
  <path d="m449.94 197.88c0 22.628-7.3862 38.252-22.537 54.887-11.298 12.405-26.476 24.055-44.604 24.968-5.1475 0.25934-10.321 1.1822-15.66 0.86288-22.065-1.3197-42.368-9.4447-55.488-22.143-16.403-15.876-27.313-35.122-27.313-58.575 0-45.419 37.35-77.455 82.801-78.114 29.176-0.42336 58.79 15.442 72.656 34.475 8.4962 11.662 10.145 28.075 10.145 43.639z" fill="#d40000" fill-opacity=".99219" stroke-linecap="round" stroke-linejoin="round" stroke-width="2.011"/>
  <path d="m284.34 209.34c63.979 6.1975 115.83 6.4569 166.12-2.6038" fill="#fff" fill-rule="evenodd" stroke-width="1.105"/>
  <path d="m300.85 193.43v17.318" fill="#ececec" fill-rule="evenodd" stroke-width="1.105"/>
  <path d="m332.95 191.5v20.395" fill="#fff" fill-rule="evenodd" stroke-width="1.105"/>
  <path d="m350.2 203.38-0.15254 9.6048" fill="#fff" fill-rule="evenodd" stroke-width="1.105"/>
  <path d="m383.62 202.35v10.936" fill="#fff" fill-rule="evenodd" stroke-width="1.105"/>
  <path d="m367.97 191.05v22.42" fill="#fff" fill-rule="evenodd" stroke-width="1.105"/>
  <path d="m397.35 190.26v22.132" fill="#fff" fill-rule="evenodd" stroke-width="1.105"/>
  <path d="m414.87 201.24v10.098" fill="#fff" fill-rule="evenodd" stroke-width="1.105"/>
  <path d="m428.14 188.39 0.52076 21.094" fill="#fff" fill-rule="evenodd" stroke-width="1.105"/>
  <path d="m345.64 132.18c12.771 6.5096 27.469 6.9317 36.906 1.2618 18.887-10.337 30.124-25.584 40.147-39.003-11.189 6.7213-22.089 21.195-39.312 21.928 11.016-10.681 6.8429-27.125 5.0322-37.806-5.1285 9.9874-10.221 25.738-16.983 35.725-11.579-2.4118-14.723-12.224-16.354-17.927-6.5197 5.6872-4.6926 15.985-1.258 21.672-18.102-3.5138-29.798-23.656-39.941-34.541 5.1651 15.036 8.3952 36.474 31.764 48.69z" fill="#008000" fill-rule="evenodd" stroke-width="2.033"/>
  <path d="m368.18 219.25-13.993 17.675c8.5921 2.5458 17.184 2.8051 25.776 0l-11.784-17.675z" fill="#fff" fill-rule="evenodd" stroke-width="2.011"/>
  <path d="m366.99 183.8v2.4574h-13.637c-0.0188-0.61553 0.0797-1.2074 0.29554-1.7756 0.34713-0.93752 0.90067-1.8608 1.6606-2.77 0.76933-0.90912 1.8764-1.9603 3.3212-3.1535 2.2423-1.8561 3.7575-3.324 4.5456-4.4036 0.78807-1.089 1.1821-2.1165 1.1821-3.0825 0-1.0132-0.36124-1.8656-1.0836-2.5569-0.71305-0.70074-1.6466-1.0511-2.8006-1.0512-1.2197 2e-5 -2.1954 0.36935-2.9272 1.108s-1.1024 1.7614-1.1118 3.0683l-2.6035-0.26986c0.17827-1.9603 0.84907-3.4518 2.0124-4.4746 1.1634-1.0322 2.7255-1.5483 4.6863-1.5483 1.9796 3e-5 3.5464 0.55404 4.7004 1.662s1.731 2.4811 1.731 4.1194c0 0.83337-0.16886 1.6525-0.5066 2.4575s-0.90069 1.6525-1.6888 2.5427c-0.77873 0.89019-2.0782 2.1118-3.8982 3.6649-1.5199 1.2879-2.4957 2.1639-2.9272 2.6279-0.43158 0.45455-0.7881 0.91385-1.0696 1.3779h10.119m2.7302-2.9973 2.6598-0.22727c0.19703 1.3069 0.65206 2.2918 1.3651 2.9546 0.72242 0.65343 1.5903 0.98016 2.6035 0.98016 1.2197 0 2.2517-0.46404 3.0961-1.3921s1.2666-2.1592 1.2666-3.6933c0-1.4584-0.4081-2.609-1.2243-3.4518-0.80687-0.84281-1.867-1.2642-3.1805-1.2642-0.81625 0-1.5527 0.18942-2.2095 0.56819-0.65676 0.36935-1.1728 0.85231-1.548 1.4489l-2.3784-0.31253 1.9984-10.696h10.259v2.4433h-8.2328l-1.1118 5.5968c1.2384-0.87123 2.5378-1.3069 3.8983-1.3069 1.8014 0 3.3212 0.62976 4.5597 1.8893s1.8576 2.8789 1.8576 4.8581c0 1.8845-0.54416 3.5134-1.6325 4.8865-1.3229 1.6856-3.1289 2.5285-5.4181 2.5285-1.8764 0-3.4104-0.53031-4.6019-1.591-1.1822-1.0606-1.8576-2.4669-2.0265-4.2189" fill="#fff" fill-opacity=".99219" stroke-linecap="round" stroke-linejoin="round" stroke-width=".484"/>
  <path d="m317.26 201.56-0.15254 9.6048" fill="#fff" fill-rule="evenodd" stroke-width="1.105"/>
  <path d="m442.45 197.27v10.098" fill="#fff" fill-rule="evenodd" stroke-width="1.105"/>
 </g>
</svg>
